<svg width="85" height="69" viewBox="0 0 85 69" fill="none" xmlns="http://www.w3.org/2000/svg">
<g clip-path="url(#clip0_68_495)">
<path d="M11.5295 20.5148C11.0924 20.2891 11.0651 20.3124 10.464 20.0167C10.101 19.8338 9.85121 19.7132 9.52336 19.5147C9.3243 19.398 9.35163 19.4019 8.70763 18.9855C8.46594 18.8141 8.21442 18.6569 7.95434 18.5147C7.58746 18.3357 7.49769 18.359 7.17374 18.1722C7.06445 18.1061 7.08787 18.11 6.64293 17.7831C6.4323 17.6244 6.21201 17.4788 5.98332 17.3473C5.76342 17.2402 5.52957 17.1642 5.28858 17.1216C5.05959 17.0885 4.82898 17.0677 4.59774 17.0593C4.27379 17.0399 4.11377 17.0282 3.97326 17.0282C3.64646 17.011 3.31891 17.0425 3.00141 17.1216C2.80345 17.1834 2.61349 17.2683 2.43547 17.3745C1.82385 17.6774 1.29589 18.125 0.89768 18.6781C0.582269 19.1479 0.368278 19.678 0.269294 20.2346C0.237309 20.4526 0.216466 20.6721 0.206846 20.8922C0.206846 21.2463 0.230264 21.3748 0.23807 21.9234C0.23807 21.9234 0.23807 21.9234 0.23807 22.5188V25.5812C0.23807 26.1571 0.214652 26.5813 0.206846 26.7486C0.163912 27.7837 0.241973 29.6826 0.269294 30.8656C0.308324 32.3559 0.245876 31.7722 0.23807 35.9943V38.9944C0.23807 40.6677 0.2771 40.7416 0.23807 41.2475C0.201812 41.7161 0.191388 42.1863 0.206846 42.6561C0.206846 42.9052 0.206846 43.1581 0.269294 43.4694C0.365389 44.0413 0.523747 44.6011 0.74156 45.1387C1.13186 46.2672 1.00697 46.1232 1.24505 46.7342C1.5107 47.4101 1.83593 48.0612 2.2169 48.6798C2.56104 49.3072 2.95936 49.9035 3.40732 50.462C3.99171 51.14 4.63139 51.7687 5.3198 52.3415C5.69113 52.6866 6.08208 53.0101 6.49071 53.3104C7.02603 53.672 7.5797 54.0058 8.14949 54.3105C8.87546 54.7346 9.12135 54.9097 9.7107 55.2794C10.8582 55.9876 11.5529 56.3223 12.88 57.0305C13.1493 57.1744 14.6441 58.0188 17.626 59.6999L20.8031 61.4821C25.0964 63.9569 26.8957 65.2877 28.9565 66.3189C29.2219 66.4512 31.1344 67.4007 31.8018 67.7781C31.8604 67.8132 32.0984 67.9494 32.4302 68.1128C32.762 68.2762 32.961 68.3618 33.0547 68.4046C33.3462 68.541 33.6476 68.6555 33.9563 68.7471C34.4216 68.8495 34.9049 68.8389 35.3653 68.7159C35.8809 68.6328 36.373 68.4418 36.8094 68.1556C37.1593 67.9162 37.4666 67.6203 37.7188 67.2801C37.9756 66.9231 38.1769 66.5295 38.3159 66.1127C38.4868 65.6107 38.5815 65.0861 38.597 64.5562C38.6295 63.5855 38.6087 62.6139 38.5345 61.6455C38.5072 60.8673 38.5345 61.0073 38.5657 59.0189C38.5657 58.1745 38.5657 57.5013 38.5657 56.1121C38.5423 51.7928 38.5033 49.8861 38.5033 47.6369V43.1231C38.4935 42.557 38.4413 41.9925 38.3472 41.4342C38.1811 40.6752 37.9188 39.9403 37.5666 39.2474C37.1261 38.2565 36.6039 37.3037 36.0054 36.3989C35.1116 35.0603 34.6627 34.3911 33.8119 33.6751C32.75 32.8763 31.6233 32.167 30.4436 31.5543L29.8464 31.2119L28.8121 30.5854C28.3203 30.2819 28.0705 30.134 27.9964 30.0834C27.4812 29.7527 27.1221 29.4881 26.9933 29.3947C26.0843 28.8103 25.1421 28.2789 24.1714 27.8031C22.6922 26.986 23.0005 27.0249 21.5993 26.2466C20.0888 25.4139 19.9444 25.4995 18.6174 24.7135C17.6807 24.157 17.6924 24.0792 16.58 23.4332C15.9829 23.0869 15.655 22.9196 14.6051 22.3048L13.6957 21.7756L12.5638 21.1179C11.7091 20.6237 11.6778 20.5926 11.5295 20.5148Z" fill="#06A43C"/>
<path d="M42.4531 24.406C49.1592 24.406 54.5955 18.9861 54.5955 12.3003C54.5955 5.61449 49.1592 0.194565 42.4531 0.194565C35.7471 0.194565 30.3109 5.61449 30.3109 12.3003C30.3109 18.9861 35.7471 24.406 42.4531 24.406Z" fill="#06A43C"/>
<path d="M73.4666 20.5148C73.9076 20.2891 73.931 20.3124 74.536 20.0167C74.899 19.8338 75.1488 19.7132 75.4766 19.5147C75.6718 19.398 75.6484 19.4019 76.2924 18.9855C76.534 18.8141 76.7856 18.6569 77.0456 18.5147C77.4125 18.3357 77.5023 18.359 77.8262 18.1722C77.9394 18.1061 77.916 18.11 78.361 17.7831C78.5709 17.6235 78.7913 17.4779 79.0206 17.3473C79.2394 17.2418 79.4719 17.1672 79.7114 17.1255C79.9391 17.0925 80.1684 17.0717 80.3983 17.0632C80.7223 17.0438 80.8862 17.0321 81.0267 17.0321C81.3535 17.0151 81.681 17.0466 81.9986 17.1255C82.1965 17.1873 82.3865 17.2722 82.5645 17.3784C83.1743 17.6823 83.7018 18.1281 84.1023 18.6781C84.4157 19.1485 84.6283 19.6784 84.7268 20.2346C84.7609 20.4524 84.7818 20.672 84.7892 20.8922C84.7892 21.2463 84.7697 21.3748 84.758 21.9234V25.5812C84.758 26.1571 84.7853 26.5813 84.7892 26.7486C84.8361 27.7953 84.758 29.6943 84.7268 30.8772C84.6917 32.3676 84.7541 31.7839 84.758 36.0059C84.758 37.7337 84.758 38.6014 84.758 39.0061C84.758 40.6793 84.7229 40.7533 84.758 41.2591C84.7984 41.7276 84.8088 42.198 84.7892 42.6678C84.7836 42.9398 84.7627 43.2113 84.7268 43.4811C84.6311 44.0476 84.474 44.6021 84.2584 45.1348C83.8681 46.2633 83.993 46.1193 83.7549 46.7303C83.4893 47.4062 83.1641 48.0573 82.7831 48.6759C82.4438 49.3018 82.0521 49.8979 81.6122 50.4581C81.0278 51.1361 80.3881 51.7648 79.6997 52.3376C79.3275 52.6817 78.9366 53.0052 78.5288 53.3065C77.9926 53.6688 77.4376 54.0026 76.8661 54.3066C76.1401 54.7307 75.8942 54.9058 75.3049 55.2755C74.1574 55.9837 73.4588 56.3184 72.1356 57.0266C71.8663 57.1705 70.3715 58.0149 67.3896 59.696L64.2125 61.486C59.9192 63.9608 58.1199 65.2916 56.0552 66.3228C55.7937 66.4551 53.8812 67.4046 53.2138 67.782C53.1513 67.8171 52.9133 67.9533 52.5854 68.1167C52.2575 68.2801 52.0546 68.3657 51.957 68.4085C51.667 68.5454 51.3669 68.6599 51.0593 68.751C50.5926 68.8535 50.1081 68.8428 49.6464 68.7198C49.1321 68.6365 48.6412 68.4455 48.2062 68.1595C47.8563 67.9201 47.549 67.6242 47.2968 67.284C47.0383 66.928 46.8368 66.5342 46.6996 66.1166C46.5288 65.6146 46.4341 65.09 46.4186 64.5601C46.3861 63.5894 46.4069 62.6177 46.4811 61.6494C46.5045 60.8711 46.4811 61.0112 46.4499 59.0228C46.4499 58.1784 46.4499 57.5052 46.4499 56.116C46.4733 51.7967 46.5123 49.89 46.5123 47.6408V43.1231C46.5181 42.5568 46.5703 41.992 46.6684 41.4342C46.8345 40.6752 47.0968 39.9403 47.449 39.2474C47.8879 38.2557 48.4102 37.3028 49.0102 36.3989C49.904 35.0603 50.3529 34.3911 51.2037 33.6751C52.2611 32.8746 53.3839 32.1639 54.5603 31.5504L55.1575 31.208L56.2035 30.5854L57.0192 30.0834C57.5344 29.7527 57.8935 29.488 58.0223 29.3947C58.9308 28.8094 59.8731 28.278 60.8442 27.8031C62.3234 26.986 62.0151 27.0249 63.4163 26.2466C64.9229 25.4139 65.0712 25.4995 66.3943 24.7135C67.3349 24.157 67.3193 24.0792 68.4356 23.4332C69.0288 23.0869 69.3606 22.9196 70.4105 22.3048L71.3199 21.7756L72.4479 21.1179C73.287 20.6237 73.3183 20.5926 73.4666 20.5148Z" fill="#06A43C"/>
</g>
<defs>
<clipPath id="clip0_68_495">
<rect width="85" height="69" fill="white"/>
</clipPath>
</defs>
</svg>
