<svg width="132" height="107" viewBox="0 0 132 107" fill="none" xmlns="http://www.w3.org/2000/svg">
<g clip-path="url(#clip0_67_489)">
<path d="M17.9047 31.8128C17.2258 31.4628 17.1834 31.499 16.25 31.0404C15.6863 30.7568 15.2984 30.5697 14.7892 30.262C14.4801 30.0809 14.5226 30.087 13.5225 29.4413C13.1471 29.1754 12.7565 28.9316 12.3527 28.7111C11.7829 28.4336 11.6435 28.4698 11.1404 28.1801C10.9707 28.0775 11.0071 28.0836 10.3161 27.5767C9.98902 27.3306 9.64692 27.1049 9.29177 26.9009C8.95028 26.7347 8.58714 26.6169 8.21289 26.5509C7.85728 26.4995 7.49915 26.4673 7.14006 26.4543C6.63698 26.4241 6.38848 26.406 6.17027 26.406C5.66277 26.3794 5.1541 26.4282 4.66105 26.5509C4.35362 26.6468 4.05862 26.7784 3.78218 26.9431C2.83236 27.4128 2.01247 28.1068 1.39408 28.9646C0.904262 29.6931 0.571947 30.5151 0.418231 31.3783C0.36856 31.7164 0.336192 32.0567 0.321252 32.3981C0.321252 32.9472 0.357619 33.1463 0.369741 33.9972C0.369741 33.9972 0.369741 33.9972 0.369741 34.9204V39.6694C0.369741 40.5625 0.333374 41.2202 0.321252 41.4797C0.254579 43.0848 0.375803 46.0296 0.418231 47.864C0.478842 50.1751 0.381864 49.27 0.369741 55.8172V60.4696C0.369741 63.0643 0.430353 63.179 0.369741 63.9635C0.313435 64.6902 0.297248 65.4194 0.321252 66.1479C0.321252 66.5341 0.321252 66.9263 0.418231 67.409C0.567461 68.2959 0.813381 69.1639 1.15163 69.9977C1.75775 71.7477 1.56379 71.5244 1.93352 72.4718C2.34607 73.5199 2.85112 74.5296 3.44275 75.4889C3.97718 76.4619 4.59574 77.3866 5.29141 78.2527C6.19892 79.3041 7.1923 80.2789 8.26138 81.1672C8.83803 81.7024 9.44515 82.2041 10.0797 82.6698C10.911 83.2304 11.7709 83.748 12.6557 84.2206C13.7831 84.8783 14.1649 85.1498 15.0802 85.7231C16.8622 86.8213 17.9411 87.3403 20.0018 88.4385C20.4201 88.6618 22.7415 89.9712 27.3722 92.5781L32.306 95.3418C38.9733 99.1796 41.7675 101.243 44.9678 102.842C45.3799 103.048 48.3499 104.52 49.3864 105.105C49.4773 105.16 49.847 105.371 50.3622 105.624C50.8774 105.878 51.1865 106.01 51.332 106.077C51.7848 106.288 52.2528 106.466 52.7321 106.608C53.4548 106.767 54.2053 106.75 54.9202 106.559C55.7209 106.431 56.4852 106.134 57.1628 105.691C57.7062 105.319 58.1835 104.86 58.5751 104.333C58.9739 103.779 59.2866 103.169 59.5024 102.523C59.7677 101.744 59.9148 100.931 59.9389 100.109C59.9894 98.6037 59.957 97.0969 59.8419 95.5952C59.7994 94.3883 59.8419 94.6056 59.8904 91.5221C59.8904 90.2126 59.8904 89.1687 59.8904 87.0144C59.854 80.3164 59.7934 77.3596 59.7934 73.8718V66.872C59.7782 65.9942 59.6971 65.1188 59.5509 64.2531C59.2931 63.076 58.8857 61.9365 58.3387 60.8618C57.6547 59.3252 56.8437 57.8478 55.9142 56.4447C54.5262 54.3689 53.8292 53.331 52.5079 52.2207C50.8588 50.9821 49.1092 49.8821 47.2771 48.932L46.3497 48.401L44.7435 47.4295C43.9798 46.9588 43.5919 46.7295 43.4767 46.6511C42.6767 46.1382 42.119 45.7278 41.919 45.583C40.5074 44.6768 39.0442 43.8527 37.5368 43.115C35.2396 41.8478 35.7184 41.9081 33.5425 40.7013C31.1968 39.4099 30.9726 39.5427 28.9118 38.3238C27.4571 37.4609 27.4753 37.3402 25.7478 36.3385C24.8205 35.8014 24.3113 35.542 22.6809 34.5885L21.2686 33.7679L19.5109 32.7481C18.1835 31.9817 18.135 31.9335 17.9047 31.8128Z" fill="white"/>
<path d="M65.9273 37.8471C76.3414 37.8471 84.7836 29.4422 84.7836 19.0744C84.7836 8.70653 76.3414 0.301716 65.9273 0.301716C55.5133 0.301716 47.071 8.70653 47.071 19.0744C47.071 29.4422 55.5133 37.8471 65.9273 37.8471Z" fill="white"/>
<path d="M114.089 31.8128C114.774 31.4628 114.811 31.499 115.75 31.0404C116.314 30.7568 116.702 30.5697 117.211 30.262C117.514 30.0809 117.477 30.087 118.478 29.4413C118.853 29.1754 119.243 28.9316 119.647 28.7111C120.217 28.4336 120.356 28.4698 120.86 28.1801C121.035 28.0775 120.999 28.0836 121.69 27.5767C122.016 27.3291 122.358 27.1033 122.714 26.9009C123.054 26.7373 123.415 26.6216 123.787 26.5569C124.141 26.5058 124.497 26.4735 124.854 26.4604C125.357 26.4302 125.611 26.4121 125.83 26.4121C126.337 26.3857 126.846 26.4345 127.339 26.5569C127.646 26.6528 127.941 26.7844 128.218 26.9491C129.165 27.4204 129.984 28.1117 130.606 28.9646C131.093 29.6941 131.423 30.5158 131.576 31.3783C131.629 31.716 131.661 32.0565 131.673 32.3981C131.673 32.9472 131.642 33.1463 131.624 33.9972V39.6694C131.624 40.5625 131.667 41.2202 131.673 41.4797C131.745 43.1029 131.624 46.0477 131.576 47.8821C131.521 50.1932 131.618 49.2881 131.624 55.8353C131.624 58.5145 131.624 59.8601 131.624 60.4877C131.624 63.0824 131.57 63.1971 131.624 63.9816C131.687 64.7079 131.703 65.4375 131.673 66.166C131.664 66.5878 131.631 67.0089 131.576 67.4271C131.427 68.3056 131.183 69.1655 130.848 69.9917C130.242 71.7417 130.436 71.5184 130.066 72.4658C129.654 73.5139 129.149 74.5236 128.557 75.4829C128.03 76.4535 127.422 77.378 126.739 78.2466C125.831 79.2981 124.838 80.2729 123.769 81.1612C123.191 81.6949 122.584 82.1965 121.951 82.6637C121.118 83.2256 120.256 83.7432 119.368 84.2145C118.241 84.8723 117.859 85.1438 116.944 85.7171C115.162 86.8153 114.077 87.3343 112.022 88.4325C111.604 88.6558 109.283 89.9652 104.652 92.572L99.7182 95.3478C93.0509 99.1856 90.2567 101.249 87.0504 102.848C86.6443 103.054 83.6743 104.526 82.6378 105.111C82.5409 105.166 82.1711 105.377 81.662 105.63C81.1529 105.884 80.8377 106.016 80.6862 106.083C80.2358 106.295 79.7698 106.473 79.2921 106.614C78.5674 106.773 77.8149 106.756 77.0979 106.566C76.2992 106.436 75.537 106.14 74.8614 105.697C74.318 105.325 73.8407 104.867 73.4491 104.339C73.0477 103.787 72.7348 103.176 72.5218 102.529C72.2565 101.75 72.1094 100.937 72.0854 100.115C72.0348 98.6097 72.0672 97.1029 72.1823 95.6012C72.2187 94.3944 72.1823 94.6116 72.1339 91.5281C72.1339 90.2186 72.1339 89.1747 72.1339 87.0205C72.1702 80.3224 72.2308 77.3656 72.2308 73.8778V66.872C72.2399 65.9939 72.3209 65.118 72.4733 64.2531C72.7311 63.076 73.1385 61.9365 73.6855 60.8618C74.3671 59.324 75.1781 57.8464 76.11 56.4447C77.498 54.3689 78.195 53.331 79.5164 52.2207C81.1584 50.9795 82.9021 49.8774 84.7289 48.926L85.6563 48.395L87.2807 47.4295L88.5475 46.6511C89.3476 46.1382 89.9052 45.7278 90.1052 45.583C91.5161 44.6755 92.9793 43.8514 94.4874 43.115C96.7846 41.8478 96.3058 41.9081 98.4817 40.7013C100.821 39.4099 101.052 39.5427 103.106 38.3238C104.567 37.4609 104.543 37.3402 106.276 36.3385C107.198 35.8014 107.713 35.542 109.343 34.5885L110.756 33.7679L112.507 32.7481C113.81 31.9817 113.859 31.9335 114.089 31.8128Z" fill="white"/>
</g>
<defs>
<clipPath id="clip0_67_489">
<rect width="132" height="107" fill="white"/>
</clipPath>
</defs>
</svg>
